<?xml version="1.0" encoding="UTF-8"?>
<svg version="1.1" xmlns="http://www.w3.org/2000/svg" width="500" height="500">
<path d="M0 0 C0.84667236 0.72920654 0.84667236 0.72920654 1.71044922 1.47314453 C31.11720427 27.06343775 49.7539839 63.31584579 54 102 C54.28822539 107.37837503 54.34138885 112.74124695 54.3125 118.125 C54.31034485 118.84988617 54.3081897 119.57477234 54.30596924 120.32162476 C54.10526602 162.48380243 37.66359522 201.08632259 8 231 C7.07703125 231.93585938 6.1540625 232.87171875 5.203125 233.8359375 C-14.6017683 252.92960535 -41.23113642 266.12055078 -68 272 C-68.66322266 272.15098145 -69.32644531 272.30196289 -70.00976562 272.45751953 C-108.28489694 280.83359289 -151.38367145 273.74461976 -184.4375 252.5625 C-194.41681452 245.92707001 -203.76094577 238.72689297 -212 230 C-213.66532744 228.33199518 -215.33206639 226.66539876 -217 225 C-245.62270601 196.27960557 -258.28586122 156.06870718 -258.24658203 116.2199707 C-257.82048055 74.36571532 -240.43620908 37.90779372 -212 8 C-211.36964844 7.30519531 -210.73929688 6.61039063 -210.08984375 5.89453125 C-156.06450771 -51.69291486 -57.67224474 -49.89582682 0 0 Z " fill="#CE0505" transform="translate(337,116)"/>
<path d="M0 0 C1.2065625 0.0309375 1.2065625 0.0309375 2.4375 0.0625 C2.4375 0.7225 2.4375 1.3825 2.4375 2.0625 C1.7775 2.0625 1.1175 2.0625 0.4375 2.0625 C3.40451269 5.4832911 5.4561759 6.59173339 9.875 7.4375 C15.51445527 8.80622721 17.12180731 10.42053023 20.4375 15.0625 C21.489375 15.76375 22.54125 16.465 23.625 17.1875 C26.56414912 19.14693275 27.29506135 19.83313135 28.4375 23.0625 C28.30217097 24.92120286 28.10888075 26.77611112 27.875 28.625 C27.80545368 34.28607038 29.25901745 37.02346219 33 41.25 C37.44206944 45.61133172 41.32635439 46.91426528 47.5 47 C49.40458984 46.92072266 49.40458984 46.92072266 51.34765625 46.83984375 C52.36730469 46.91332031 53.38695312 46.98679688 54.4375 47.0625 C55.87109375 49.06640625 55.87109375 49.06640625 56.4375 51.0625 C59.0775 51.0625 61.7175 51.0625 64.4375 51.0625 C64.9015625 49.6084375 64.9015625 49.6084375 65.375 48.125 C66.4375 45.0625 66.4375 45.0625 67.4375 44.0625 C71.51454725 43.74871159 75.59535289 43.70579449 79.68334961 43.6574707 C81.05600159 43.63590393 82.4285165 43.60181459 83.80053711 43.55493164 C85.77901253 43.4879253 87.75880198 43.46413617 89.73828125 43.44140625 C90.92591064 43.4163501 92.11354004 43.39129395 93.3371582 43.36547852 C97.59586952 44.32292562 98.15019405 46.49476685 100.4375 50.0625 C103.05040176 50.90678733 103.05040176 50.90678733 105.9375 50.7265625 C106.989375 50.73429687 108.04125 50.74203125 109.125 50.75 C110.218125 50.729375 111.31125 50.70875 112.4375 50.6875 C114.60403012 50.6619513 116.77084528 50.65344164 118.9375 50.6640625 C119.8965625 50.64682129 120.855625 50.62958008 121.84375 50.61181641 C125.25690732 51.20487819 126.26758393 52.4043382 128.4375 55.0625 C128.93870544 57.45948792 128.93870544 57.45948792 128.93920898 60.15063477 C128.94858994 61.16170792 128.95797089 62.17278107 128.96763611 63.2144928 C128.95078514 64.84275246 128.95078514 64.84275246 128.93359375 66.50390625 C128.93504898 67.62312973 128.93650421 68.74235321 128.93800354 69.89549255 C128.93634433 72.26002609 128.92478078 74.62457041 128.90405273 76.98901367 C128.87508082 80.61488521 128.88344763 84.23929674 128.89648438 87.86523438 C128.89024764 90.16146546 128.88185721 92.45769192 128.87109375 94.75390625 C128.87402939 95.84143692 128.87696503 96.92896759 128.87998962 98.04945374 C128.86730545 99.05737473 128.85462128 100.06529572 128.84155273 101.10375977 C128.83614975 101.99104263 128.83074677 102.8783255 128.82518005 103.79249573 C128.35719334 106.53272401 127.65449676 107.42717433 125.4375 109.0625 C122.69775391 109.44726562 122.69775391 109.44726562 119.4140625 109.46875 C118.228125 109.49066406 117.0421875 109.51257813 115.8203125 109.53515625 C113.96019531 109.54869141 113.96019531 109.54869141 112.0625 109.5625 C109.61705338 109.58040599 107.17165908 109.61116687 104.7265625 109.65625 C103.64068848 109.66333984 102.55481445 109.67042969 101.43603516 109.67773438 C98.07230438 110.10936112 96.21343751 111.16888684 93.4375 113.0625 C89.76798238 114.38352634 85.9955977 114.30108909 82.125 114.375 C80.21267578 114.43107422 80.21267578 114.43107422 78.26171875 114.48828125 C74.42290049 114.06087452 72.52211704 113.02810353 69.3190918 110.9909668 C65.7497682 109.22969294 61.9139179 109.38188452 58 109.3125 C56.75959961 109.26802734 56.75959961 109.26802734 55.49414062 109.22265625 C53.47576823 109.1526549 51.45663377 109.10523299 49.4375 109.0625 C49.67871582 109.92488281 49.67871582 109.92488281 49.92480469 110.8046875 C52.37627384 121.60049069 51.69918746 136.91311175 46.0078125 146.4609375 C44.56980811 148.44266495 43.09940987 150.26642553 41.4375 152.0625 C40.9425 152.62839844 40.4475 153.19429687 39.9375 153.77734375 C38.4375 155.0625 38.4375 155.0625 35.4375 155.0625 C34.9425 151.5975 34.9425 151.5975 34.4375 148.0625 C32.4575 147.7325 30.4775 147.4025 28.4375 147.0625 C29.54771582 144.65703239 30.74068022 142.64815369 32.3125 140.5 C38.61709012 130.99606564 39.45356028 120.10592865 40.4375 109.0625 C39.4475 109.0625 38.4575 109.0625 37.4375 109.0625 C37.48132813 110.21105469 37.52515625 111.35960937 37.5703125 112.54296875 C37.56430641 117.09458496 36.64469683 121.04423976 35.3125 125.375 C34.97472534 126.48584961 34.97472534 126.48584961 34.63012695 127.61914062 C31.28546787 138.15877254 26.14052266 146.14441833 18.4375 154.0625 C17.4475 153.7325 16.4575 153.4025 15.4375 153.0625 C15.1075 151.0825 14.7775 149.1025 14.4375 147.0625 C12.4575 146.7325 10.4775 146.4025 8.4375 146.0625 C9.2625 145.093125 10.0875 144.12375 10.9375 143.125 C11.48535156 142.47660156 12.03320312 141.82820312 12.59765625 141.16015625 C13.81258575 139.77498185 15.07088736 138.4265535 16.37109375 137.12109375 C20.74914144 132.62356718 23.72289139 128.07609241 26.375 122.4375 C26.66947021 121.81617188 26.96394043 121.19484375 27.26733398 120.5546875 C29.14799056 116.33898002 29.97653177 112.60216177 30.4375 108.0625 C30.14617187 108.81273437 29.85484375 109.56296875 29.5546875 110.3359375 C23.2067904 126.1857183 15.49449335 137.47155994 0.4375 146.0625 C-0.2225 146.0625 -0.8825 146.0625 -1.5625 146.0625 C-1.2325 143.7525 -0.9025 141.4425 -0.5625 139.0625 C-1.8825 138.0725 -3.2025 137.0825 -4.5625 136.0625 C-3.5625 133.0625 -3.5625 133.0625 -1.84765625 131.9921875 C-1.11417969 131.64414062 -0.38070312 131.29609375 0.375 130.9375 C11.79236984 124.83855522 20.20970194 115.15877252 24.375 102.875 C24.725625 101.616875 25.07625 100.35875 25.4375 99.0625 C24.880625 99.8359375 24.32375 100.609375 23.75 101.40625 C15.94812203 112.05475912 8.53910027 120.1047891 -3.5625 126.0625 C-4.2225 126.0625 -4.8825 126.0625 -5.5625 126.0625 C-5.2325 123.7525 -4.9025 121.4425 -4.5625 119.0625 C-5.5525 118.4025 -6.5425 117.7425 -7.5625 117.0625 C-7.5625 116.4025 -7.5625 115.7425 -7.5625 115.0625 C-6.82386719 114.73378906 -6.08523437 114.40507812 -5.32421875 114.06640625 C9.65941604 107.04104254 20.8710408 96.88111993 27.52734375 81.60546875 C28.42453173 79.09873322 28.99042181 76.68379004 29.4375 74.0625 C27.4575 74.0625 25.4775 74.0625 23.4375 74.0625 C24.0975 73.4025 24.7575 72.7425 25.4375 72.0625 C25.11551034 68.96323181 25.11551034 68.96323181 24.4375 66.0625 C23.7775 66.0625 23.1175 66.0625 22.4375 66.0625 C21.9425 67.5475 21.9425 67.5475 21.4375 69.0625 C22.4275 69.5575 22.4275 69.5575 23.4375 70.0625 C21.4575 70.5575 21.4575 70.5575 19.4375 71.0625 C17.875 69.4375 17.875 69.4375 16.4375 67.0625 C16.75 63.8125 16.75 63.8125 17.4375 61.0625 C17.1075 61.3925 16.7775 61.7225 16.4375 62.0625 C14.125 62.5 14.125 62.5 11.4375 62.0625 C6.51323296 55.9071662 6.33150369 50.92762366 6.56445312 43.42382812 C6.59427172 41.63646651 6.52233134 39.84809636 6.4375 38.0625 C5.7775 37.4025 5.1175 36.7425 4.4375 36.0625 C4.8125 33.4375 4.8125 33.4375 5.4375 31.0625 C6.7575 31.0625 8.0775 31.0625 9.4375 31.0625 C9.4375 31.7225 9.4375 32.3825 9.4375 33.0625 C9.7675 33.0625 10.0975 33.0625 10.4375 33.0625 C10.68780977 30.64630177 10.68780977 30.64630177 10.4375 28.0625 C6.88580344 25.6947023 5.09208234 25.77775929 0.875 25.625 C-5.33688422 25.27667004 -10.73323018 24.19810807 -16.5625 22.0625 C-15.5725 21.7325 -14.5825 21.4025 -13.5625 21.0625 C-13.5625 20.4025 -13.5625 19.7425 -13.5625 19.0625 C-15.8725 19.7225 -18.1825 20.3825 -20.5625 21.0625 C-19.42916544 18.26694142 -18.38515597 16.47550005 -15.640625 15.09765625 C-10.66297716 13.37264381 -5.79726564 12.53838779 -0.5625 12.0625 C-1.0575 11.36125 -1.5525 10.66 -2.0625 9.9375 C-3.76498776 6.67439846 -3.89237945 4.6911739 -3.5625 1.0625 C-2.5625 0.0625 -2.5625 0.0625 0 0 Z " fill="#FDF6F6" transform="translate(155.5625,155.9375)"/>
<path d="M0 0 C4.08247657 -0.72365647 8.23591757 -0.55558617 12.375 -0.5625 C13.52484375 -0.59923828 14.6746875 -0.63597656 15.859375 -0.67382812 C24.07681953 -0.71692661 24.07681953 -0.71692661 26.68066406 1.30517578 C28.17850328 3.47407336 29 5.34580888 29 8 C30.17357056 7.99214478 30.17357056 7.99214478 31.37084961 7.98413086 C34.89305833 7.96342894 38.4152543 7.95036162 41.9375 7.9375 C43.16919922 7.92912109 44.40089844 7.92074219 45.66992188 7.91210938 C46.83974609 7.90888672 48.00957031 7.90566406 49.21484375 7.90234375 C50.84087524 7.89448853 50.84087524 7.89448853 52.49975586 7.88647461 C55 8 55 8 56 9 C56.10358779 10.52386231 56.13851138 12.05246986 56.14526367 13.57983398 C56.15164352 14.55431992 56.15802338 15.52880585 56.16459656 16.53282166 C56.16570938 17.59320145 56.1668222 18.65358124 56.16796875 19.74609375 C56.17296135 21.36826561 56.17296135 21.36826561 56.17805481 23.02320862 C56.18312877 25.31567966 56.18546299 27.60815812 56.18530273 29.90063477 C56.18748845 33.41890567 56.20563728 36.93686281 56.22460938 40.45507812 C56.22754328 42.67708225 56.22952809 44.89908788 56.23046875 47.12109375 C56.23765427 48.17944931 56.24483978 49.23780487 56.25224304 50.32823181 C56.24916641 51.3058699 56.24608978 52.283508 56.24291992 53.29077148 C56.24434494 54.15379379 56.24576996 55.0168161 56.24723816 55.9059906 C56 58 56 58 54 60 C51.38964844 60.27124023 51.38964844 60.27124023 48.109375 60.30859375 C46.92472656 60.33373047 45.74007812 60.35886719 44.51953125 60.38476562 C42.02218427 60.4197026 39.52478351 60.45099924 37.02734375 60.47851562 C35.24263672 60.5181543 35.24263672 60.5181543 33.421875 60.55859375 C31.79137207 60.57877563 31.79137207 60.57877563 30.12792969 60.59936523 C26.55922874 61.05645533 24.15965726 62.32658222 21 64 C17.34375 64.3984375 17.34375 64.3984375 13.5 64.375 C12.2315625 64.38273437 10.963125 64.39046875 9.65625 64.3984375 C6 64 6 64 3.2109375 62.51953125 C-1.41826163 60.32882753 -5.81264715 60.43254224 -10.875 60.3125 C-11.84953125 60.27833984 -12.8240625 60.24417969 -13.828125 60.20898438 C-16.21863491 60.12695707 -18.60879905 60.05766152 -21 60 C-21.2791626 59.11900635 -21.2791626 59.11900635 -21.56396484 58.22021484 C-22.98337146 53.83630433 -24.51319916 49.73199918 -26.625 45.625 C-29.13751447 40.22802782 -30.3778947 34.97848796 -30 29 C-29.00390625 26.68359375 -29.00390625 26.68359375 -28 25 C-27.34 25 -26.68 25 -26 25 C-26 25.99 -26 26.98 -26 28 C-26.66 28 -27.32 28 -28 28 C-28 28.66 -28 29.32 -28 30 C-27.01 30 -26.02 30 -25 30 C-25 29.34 -25 28.68 -25 28 C-24.34 28 -23.68 28 -23 28 C-23 29.32 -23 30.64 -23 32 C-23.99 32 -24.98 32 -26 32 C-26 32.66 -26 33.32 -26 34 C-24.68 34 -23.36 34 -22 34 C-22.33 34.99 -22.66 35.98 -23 37 C-23.99 36.67 -24.98 36.34 -26 36 C-25.67 37.32 -25.34 38.64 -25 40 C-22.52733235 39.65555119 -22.52733235 39.65555119 -20 39 C-17.17283475 33.34566951 -18.36275302 23.68779419 -19.7890625 17.671875 C-21.1130394 13.97282505 -22.58480921 10.67877253 -24.63671875 7.32421875 C-26 5 -26 5 -26 3 C-22.7 3 -19.4 3 -16 3 C-16 4.65 -16 6.3 -16 8 C-12.04 8 -8.08 8 -4 8 C-3.34 6.35 -2.68 4.7 -2 3 C-1.34 2.01 -0.68 1.02 0 0 Z " fill="#CF0C0C" transform="translate(225,203)"/>
<path d="M0 0 C5.05160859 3.52993315 8.31562513 7.69276058 10.23046875 13.55859375 C11.07644878 21.5239901 10.7646455 29.02900288 5.71875 35.49609375 C-0.14412703 41.82009594 -5.20242906 43.70499089 -13.70703125 44.05859375 C-21.27189565 43.87408486 -25.17466179 42.02449929 -30.51171875 36.87890625 C-36.35832806 30.58470962 -37.29800792 24.18162448 -37.14453125 15.75 C-36.38834893 9.31457335 -32.95227957 5.46502386 -28.33203125 1.18359375 C-19.82496058 -5.5200508 -9.2055096 -5.16620809 0 0 Z " fill="#D00F0F" transform="translate(251.76953125,220.44140625)"/>
<path d="M0 0 C4.36350222 2.22291622 7.09544338 4.45022584 9 9 C9.53751218 13.22330997 9.28625223 15.42749554 7.375 19.25 C3.85074817 23.33071264 0.84607737 24.69791461 -4.4375 25.5625 C-9.18913722 24.81224149 -11.89129113 22.60926369 -15 19 C-16.24360328 15.26919016 -16.66547906 11.8685541 -16 8 C-12.34592005 1.55245352 -7.29787668 -1.11956063 0 0 Z " fill="#CF0A0A" transform="translate(242,228)"/>
<path d="M0 0 C5.05160859 3.52993315 8.31562513 7.69276058 10.23046875 13.55859375 C11.07644878 21.5239901 10.7646455 29.02900288 5.71875 35.49609375 C-0.14412703 41.82009594 -5.20242906 43.70499089 -13.70703125 44.05859375 C-21.27189565 43.87408486 -25.17466179 42.02449929 -30.51171875 36.87890625 C-36.35832806 30.58470962 -37.29800792 24.18162448 -37.14453125 15.75 C-36.38834893 9.31457335 -32.95227957 5.46502386 -28.33203125 1.18359375 C-19.82496058 -5.5200508 -9.2055096 -5.16620809 0 0 Z M-30.08203125 6.99609375 C-33.78064835 11.65141981 -35.19542426 15.36454085 -35.0234375 21.44140625 C-34.33098189 27.21542071 -31.99485806 32.54995037 -27.76953125 36.55859375 C-21.80826715 40.39159127 -16.85237521 42.5704286 -9.76953125 41.55859375 C-2.5958353 39.5534461 2.02476291 35.65436382 6.23046875 29.55859375 C8.27675662 23.41973015 8.3361884 16.0584261 5.60546875 10.12109375 C2.46068645 4.77607508 -1.88021261 1.51883411 -7.76953125 -0.44140625 C-17.41264803 -1.57125372 -23.46298867 -0.27374198 -30.08203125 6.99609375 Z " fill="#FBEEEE" transform="translate(251.76953125,220.44140625)"/>
<path d="M0 0 C5.26594344 1.85856827 7.79395768 4.60314196 11 9 C12.55417619 13.66252858 12.54448802 17.48753327 10.875 22.125 C8.07984174 26.41090933 4.95224283 29.34925239 0 31 C-5.86839565 31.57533291 -10.33989624 30.59869184 -15 27 C-17.87676313 23.35771167 -19.21702167 19.49108405 -19.5 14.875 C-18.77278826 9.23910905 -16.57756572 6.38976028 -12.375 2.6875 C-8.28551432 -0.2181872 -4.9348306 -0.49809505 0 0 Z M-15 9 C-16.59781534 12.19563068 -16.36841911 15.5234633 -16 19 C-14.22694656 23.10601848 -11.80880012 25.66278175 -8 28 C-2.80501878 28.66117943 0.64580981 27.90279346 5 25 C7.78945399 21.77010591 8.89519026 19.7336682 9.5 15.5 C8.76571521 10.36000646 6.70549682 7.42124735 2.75 4.125 C-5.04392188 0.93657741 -9.67452499 3.04164245 -15 9 Z " fill="#FBEEEE" transform="translate(242,225)"/>
<path d="M0 0 C0.78955078 -0.01224609 1.57910156 -0.02449219 2.39257812 -0.03710938 C4.45057435 -0.04237279 6.50812009 0.06543715 8.5625 0.1875 C9.2225 0.8475 9.8825 1.5075 10.5625 2.1875 C10.00694444 6.74305556 10.00694444 6.74305556 8.5625 8.1875 C5.73833618 8.31413091 2.94955207 8.37270548 0.125 8.375 C-0.66455078 8.38724609 -1.45410156 8.39949219 -2.26757812 8.41210938 C-4.32557435 8.41737279 -6.38312009 8.30956285 -8.4375 8.1875 C-9.0975 7.5275 -9.7575 6.8675 -10.4375 6.1875 C-9.55404742 -1.05681112 -6.4923885 0.00527408 0 0 Z " fill="#F2BDBD" transform="translate(267.4375,212.8125)"/>
<path d="M0 0 C0.99 0 1.98 0 3 0 C3.48313396 14.49401888 0.47621344 26.69828224 -9 38 C-7.02 38 -5.04 38 -3 38 C-3 38.33 -3 38.66 -3 39 C-6.33333333 39 -9.66666667 39 -13 39 C-11.67688143 35.45908267 -10.0699531 32.35987018 -8.125 29.125 C-3.20430916 20.23406961 -0.82418587 10.09627695 0 0 Z " fill="#D32121" transform="translate(193,265)"/>
<path d="M0 0 C0.99 -0.33 1.98 -0.66 3 -1 C3 2.96 3 6.92 3 11 C1.576875 11.061875 0.15375 11.12375 -1.3125 11.1875 C-2.51326172 11.23970703 -2.51326172 11.23970703 -3.73828125 11.29296875 C-6 11 -6 11 -7.765625 9.67578125 C-9.69113285 7.06172155 -9.45804343 5.1408692 -9 2 C-6.02865352 -1.41154596 -4.15575197 -1.06557743 0 0 Z " fill="#F6D1D1" transform="translate(333,218)"/>
<path d="M0 0 C0 3.96 0 7.92 0 12 C-8.38769385 12.48624312 -8.38769385 12.48624312 -11.125 10.3125 C-12.23893228 7.36853611 -12.05881797 5.94956433 -11 3 C-8.50464107 -1.25678876 -4.39181074 -0.21599069 0 0 Z " fill="#F9E2E2" transform="translate(362,217)"/>
<path d="M0 0 C1.875 1.0625 1.875 1.0625 3 3 C3.375 6.5625 3.375 6.5625 3 10 C-0.46923881 12.31282587 -1.92205575 12.42478586 -6 12 C-7.875 10.875 -7.875 10.875 -9 9 C-9.39365568 5.85075452 -9.52854531 3.88090884 -7.875 1.125 C-5.11909116 -0.52854531 -3.14924548 -0.39365568 0 0 Z " fill="#FCEFEF" transform="translate(347,242)"/>
<path d="M0 0 C1.258125 -0.04125 2.51625 -0.0825 3.8125 -0.125 C4.52019531 -0.14820313 5.22789062 -0.17140625 5.95703125 -0.1953125 C8 0 8 0 11 2 C11.375 5 11.375 5 11 8 C8 10 8 10 4 10 C4 11.65 4 13.3 4 15 C2.68 15 1.36 15 0 15 C0 10.05 0 5.1 0 0 Z " fill="#F8DBDB" transform="translate(289,239)"/>
<path d="M0 0 C1.32 0 2.64 0 4 0 C4.33 1.32 4.66 2.64 5 4 C5.78375 3.95875 6.5675 3.9175 7.375 3.875 C10 4 10 4 12 6 C12.1953125 8.3828125 12.1953125 8.3828125 12.125 11.125 C12.10695313 12.03507813 12.08890625 12.94515625 12.0703125 13.8828125 C12.04710937 14.58148438 12.02390625 15.28015625 12 16 C10.68 16 9.36 16 8 16 C8 13.03 8 10.06 8 7 C7.01 7.33 6.02 7.66 5 8 C4.67 10.64 4.34 13.28 4 16 C2.68 16 1.36 16 0 16 C0 10.72 0 5.44 0 0 Z " fill="#FAE8E8" transform="translate(302,238)"/>
<path d="M0 0 C1.875 1.125 1.875 1.125 3 3 C3.39365568 6.14924548 3.52854531 8.11909116 1.875 10.875 C-0.88090884 12.52854531 -2.85075452 12.39365568 -6 12 C-7.875 10.875 -7.875 10.875 -9 9 C-9.39365568 5.85075452 -9.52854531 3.88090884 -7.875 1.125 C-5.11909116 -0.52854531 -3.14924548 -0.39365568 0 0 Z " fill="#FBEEEE" transform="translate(325,242)"/>
<path d="M0 0 C0.99 0 1.98 0 3 0 C4.65 4.95 6.3 9.9 8 15 C7.01 15 6.02 15 5 15 C5 14.01 5 13.02 5 12 C2.6568787 12.25561323 0.32156597 12.59270772 -2 13 C-2.33 13.66 -2.66 14.32 -3 15 C-3.66 15 -4.32 15 -5 15 C-4.43174347 9.45949887 -2.37113483 4.96284034 0 0 Z " fill="#F7D7D7" transform="translate(291,214)"/>
<path d="M0 0 C7.32287006 1.89298682 13.12983243 4.51642462 17.3203125 11.0625 C19.00333174 14.26376736 20 16.33685299 20 20 C19.34 20 18.68 20 18 20 C18 22.64 18 25.28 18 28 C17.67 28 17.34 28 17 28 C16.90203125 27.13117188 16.8040625 26.26234375 16.703125 25.3671875 C15.66837607 17.39248454 14.64399265 12.27959338 8.5 6.75 C3.52596308 4.26298154 -1.5188025 3.67406312 -7 3 C-7 2.67 -7 2.34 -7 2 C-4.69 2 -2.38 2 0 2 C0 1.34 0 0.68 0 0 Z " fill="#F9E2E2" transform="translate(242,217)"/>
<path d="M0 0 C0.66 0 1.32 0 2 0 C2.446711 7.14737602 1.99504151 13.13817645 -2.51171875 18.94921875 C-6.2765166 22.98474363 -9.76192463 25.28755228 -15 27 C-15.99 27 -16.98 27 -18 27 C-18 26.01 -18 25.02 -18 24 C-17.41992188 23.79246094 -16.83984375 23.58492188 -16.2421875 23.37109375 C-9.3009154 20.63352934 -5.22874979 17.13910675 -1.6875 10.5625 C-0.74627938 7.05431406 -0.3675372 3.61411583 0 0 Z " fill="#FAE9E9" transform="translate(260,237)"/>
<path d="M0 0 C5.41139241 -0.36075949 5.41139241 -0.36075949 7.9375 1.1875 C9 3 9 3 9.0625 5.5 C8 8 8 8 5.0625 9.8125 C2 11 2 11 0 11 C0 7.37 0 3.74 0 0 Z " fill="#F9E4E4" transform="translate(160,304)"/>
<path d="M0 0 C1.32 0 2.64 0 4 0 C4 0.99 4 1.98 4 3 C4.66 3 5.32 3 6 3 C6 3.99 6 4.98 6 6 C5.34 6 4.68 6 4 6 C4 7.98 4 9.96 4 12 C4.66 12 5.32 12 6 12 C6 12.99 6 13.98 6 15 C1.125 14.125 1.125 14.125 0 13 C-0.04092937 10.66702567 -0.04241723 8.33294775 0 6 C-0.66 6 -1.32 6 -2 6 C-2 5.01 -2 4.02 -2 3 C-1.34 3 -0.68 3 0 3 C0 2.01 0 1.02 0 0 Z " fill="#FBEBEB" transform="translate(331,239)"/>
<path d="M0 0 C0.33 0 0.66 0 1 0 C1 6.64726848 -0.91468359 11.56823845 -3.8125 17.4375 C-4.15603516 18.14777344 -4.49957031 18.85804688 -4.85351562 19.58984375 C-7.43518139 24.62724037 -7.43518139 24.62724037 -10.13671875 26.41015625 C-11.05904297 26.70212891 -11.05904297 26.70212891 -12 27 C-12.66 27.33 -13.32 27.66 -14 28 C-12.59486962 25.07043571 -10.99034322 22.36650841 -9.25 19.625 C-5.45148178 13.37522126 -2.74791852 6.762608 0 0 Z " fill="#D21A1A" transform="translate(186,262)"/>
<path d="M0 0 C4.95 0 9.9 0 15 0 C15.66 1.32 16.32 2.64 17 4 C11.06 4 5.12 4 -1 4 C-0.67 2.68 -0.34 1.36 0 0 Z " fill="#FBEFEF" transform="translate(230,206)"/>
<path d="M0 0 C2 3 2 3 2 7 C0.741875 7.020625 -0.51625 7.04125 -1.8125 7.0625 C-2.52019531 7.07410156 -3.22789062 7.08570313 -3.95703125 7.09765625 C-6 7 -6 7 -9 6 C-8.625 3.5625 -8.625 3.5625 -8 1 C-5.21136993 -0.39431504 -3.07921132 -0.25660094 0 0 Z " fill="#F9E1E1" transform="translate(187,306)"/>
<path d="M0 0 C0.66 0 1.32 0 2 0 C2.33 2.31 2.66 4.62 3 7 C3.99 6.01 4.98 5.02 6 4 C6.99 4.33 7.98 4.66 9 5 C7.68 6.32 6.36 7.64 5 9 C6.20381448 11.49361571 7.45428722 13.68143083 9 16 C6.13275314 15.42655063 5.1385485 15.1385485 3 13 C2.67 13.99 2.34 14.98 2 16 C1.34 16 0.68 16 0 16 C0 10.72 0 5.44 0 0 Z " fill="#F9E1E1" transform="translate(301,213)"/>
<path d="M0 0 C3 1 3 1 4.6875 4.0625 C5.120625 5.031875 5.55375 6.00125 6 7 C6.99 4.69 7.98 2.38 9 0 C9.66 0 10.32 0 11 0 C9.26375242 6.4188547 7.14819255 12.13784836 4 18 C3.34 18 2.68 18 2 18 C2.226875 16.88625 2.45375 15.7725 2.6875 14.625 C3.3879383 9.34331663 1.78618333 4.92461844 0 0 Z " fill="#F6D3D3" transform="translate(338,217)"/>
<path d="M0 0 C1.65 0.99 3.3 1.98 5 3 C4.67 5.31 4.34 7.62 4 10 C1.03824877 9.38722388 -0.38058783 8.74627478 -3 7 C-2.38722388 4.03824877 -1.74627478 2.61941217 0 0 Z " fill="#FCF0F0" transform="translate(147,292)"/>
<path d="M0 0 C0.33 0.99 0.66 1.98 1 3 C-1.31 2.67 -3.62 2.34 -6 2 C-6.74957157 5.47147842 -6.74957157 5.47147842 -7 9 C-4.36 8.34 -1.72 7.68 1 7 C0.34 8.32 -0.32 9.64 -1 11 C-6.4 11.36 -6.4 11.36 -8.875 9.875 C-10.54663625 7.08893958 -10.46376624 5.18011138 -10 2 C-6.92702006 -1.66393762 -4.38919352 -1.09729838 0 0 Z " fill="#F6D3D3" transform="translate(321,218)"/>
<path d="M0 0 C1.67542976 0.28604898 3.34385343 0.61781233 5 1 C6.125 5.75 6.125 5.75 5 8 C2.625 8.125 2.625 8.125 0 8 C-0.66 7.34 -1.32 6.68 -2 6 C-1.44444444 1.44444444 -1.44444444 1.44444444 0 0 Z " fill="#D01111" transform="translate(328,219)"/>
<path d="M0 0 C1.2065625 0.0309375 1.2065625 0.0309375 2.4375 0.0625 C2.81813221 2.3885857 3.15019945 4.72305264 3.4375 7.0625 C2.4375 8.0625 2.4375 8.0625 -0.0625 8.1875 C-2.5625 8.0625 -2.5625 8.0625 -3.5625 7.0625 C-3.6875 4.0625 -3.6875 4.0625 -3.5625 1.0625 C-2.5625 0.0625 -2.5625 0.0625 0 0 Z " fill="#CF0D0D" transform="translate(356.5625,218.9375)"/>
<path d="M0 0 C0.33 1.32 0.66 2.64 1 4 C2.65 4 4.3 4 6 4 C6 3.34 6 2.68 6 2 C6.66 2 7.32 2 8 2 C8.66 4.31 9.32 6.62 10 9 C9.01 9 8.02 9 7 9 C7 8.01 7 7.02 7 6 C4.6568787 6.25561323 2.32156597 6.59270772 0 7 C-0.33 7.66 -0.66 8.32 -1 9 C-1.66 9 -2.32 9 -3 9 C-2.5020163 5.26512223 -2.12508244 3.18762365 0 0 Z " fill="#F9E4E4" transform="translate(289,220)"/>
<path d="M0 0 C2.475 0.99 2.475 0.99 5 2 C4.67 3.65 4.34 5.3 4 7 C0.25 8.125 0.25 8.125 -2 7 C-1.125 2.25 -1.125 2.25 0 0 Z " fill="#FAEAEA" transform="translate(143,274)"/>
<path d="M0 0 C4.82360189 -0.19294408 8.49646738 0.24252386 13 2 C13 2.33 13 2.66 13 3 C8.38 3.33 3.76 3.66 -1 4 C-0.67 2.68 -0.34 1.36 0 0 Z " fill="#D42525" transform="translate(145,173)"/>
<path d="M0 0 C0.99 0 1.98 0 3 0 C3.33 1.65 3.66 3.3 4 5 C6.31 5.33 8.62 5.66 11 6 C10.67 6.66 10.34 7.32 10 8 C6.6875 8.25 6.6875 8.25 3 8 C1.0625 6.25 1.0625 6.25 0 4 C0 2.68 0 1.36 0 0 Z " fill="#F4C8C8" transform="translate(350,221)"/>
<path d="M0 0 C0.79921875 0.00902344 1.5984375 0.01804688 2.421875 0.02734375 C3.02515625 0.03894531 3.6284375 0.05054688 4.25 0.0625 C4.25 0.7225 4.25 1.3825 4.25 2.0625 C3.23679688 2.26166016 3.23679688 2.26166016 2.203125 2.46484375 C0.86507812 2.72974609 0.86507812 2.72974609 -0.5 3 C-1.38171875 3.17402344 -2.2634375 3.34804687 -3.171875 3.52734375 C-5.38235053 3.98618488 -7.56512068 4.49586074 -9.75 5.0625 C-9.42 3.7425 -9.09 2.4225 -8.75 1.0625 C-5.75519083 0.1901588 -3.11424089 -0.04579766 0 0 Z " fill="#FDF6F6" transform="translate(237.75,216.9375)"/>
<path d="M0 0 C0.99 0.33 1.98 0.66 3 1 C3.33 2.98 3.66 4.96 4 7 C2.02 7.99 2.02 7.99 0 9 C-0.87890625 2.84765625 -0.87890625 2.84765625 -1 1 C-0.67 0.67 -0.34 0.34 0 0 Z " fill="#D52C2C" transform="translate(178,221)"/>
<path d="M0 0 C0.33 0 0.66 0 1 0 C0.58846263 4.97093824 0.20399168 9.44508386 -2 14 C-2.99 14 -3.98 14 -5 14 C-3.45730076 9.27934033 -1.92205381 4.58335908 0 0 Z " fill="#D42424" transform="translate(186,262)"/>
<path d="M0 0 C1.98 0.495 1.98 0.495 4 1 C3.67 2.65 3.34 4.3 3 6 C1.68 5.67 0.36 5.34 -1 5 C-0.67 3.35 -0.34 1.7 0 0 Z " fill="#D52C2C" transform="translate(343,245)"/>
<path d="M0 0 C2 3 2 3 2 6 C1.34 6 0.68 6 0 6 C0 8.64 0 11.28 0 14 C-0.33 14 -0.66 14 -1 14 C-1.33 10.04 -1.66 6.08 -2 2 C-1.34 2 -0.68 2 0 2 C0 1.34 0 0.68 0 0 Z " fill="#F0B5B5" transform="translate(260,231)"/>
<path d="M0 0 C1.74627478 2.61941217 2.38722388 4.03824877 3 7 C1.35 7 -0.3 7 -2 7 C-1.125 1.125 -1.125 1.125 0 0 Z " fill="#D42525" transform="translate(292,217)"/>
<path d="M0 0 C0.33 0 0.66 0 1 0 C1 3.3 1 6.6 1 10 C0.34 10 -0.32 10 -1 10 C-2.46726798 6.18510326 -1.43336419 3.70988378 0 0 Z " fill="#FDF8F8" transform="translate(335,219)"/>
<path d="M0 0 C0.99 0.33 1.98 0.66 3 1 C2.67 2.65 2.34 4.3 2 6 C1.01 5.67 0.02 5.34 -1 5 C-0.67 3.35 -0.34 1.7 0 0 Z " fill="#CF0E0E" transform="translate(321,245)"/>
<path d="M0 0 C1.74627478 2.61941217 2.38722388 4.03824877 3 7 C2.01 7 1.02 7 0 7 C0 6.01 0 5.02 0 4 C-2.31 4 -4.62 4 -7 4 C-7 3.67 -7 3.34 -7 3 C-5.5459375 2.814375 -5.5459375 2.814375 -4.0625 2.625 C-2.5465625 2.315625 -2.5465625 2.315625 -1 2 C-0.67 1.34 -0.34 0.68 0 0 Z " fill="#F5CDCD" transform="translate(296,222)"/>
<path d="M0 0 C0.99 0 1.98 0 3 0 C3 2.31 3 4.62 3 7 C2.01 6.67 1.02 6.34 0 6 C0 4.02 0 2.04 0 0 Z " fill="#CF0D0D" transform="translate(335,245)"/>
<path d="M0 0 C1 3 1 3 0.3125 5.5625 C-1.16086774 8.29875437 -2.13522966 8.94958421 -5 10 C-3.66511872 6.40608886 -2.03977277 3.24509304 0 0 Z " fill="#D52C2C" transform="translate(182,251)"/>
<path d="M0 0 C1.32 0.66 2.64 1.32 4 2 C3.01 3.485 3.01 3.485 2 5 C1.01 4.67 0.02 4.34 -1 4 C-0.67 2.68 -0.34 1.36 0 0 Z " fill="#D52929" transform="translate(169,209)"/>
</svg>
